<svg width="95" height="32" viewBox="0 0 95 32" fill="none" xmlns="http://www.w3.org/2000/svg">
<path d="M35.5203 4.17043C35.126 3.80353 34.9289 3.35197 34.9291 2.81576C34.9292 2.27955 35.1355 1.8314 35.5479 1.47131C35.9601 1.1107 36.4332 0.929951 36.9674 0.929077C37.5253 0.929077 38.0076 1.11611 38.4141 1.49018C38.8207 1.86425 39.0239 2.30611 39.0238 2.81576C39.0238 3.36385 38.8174 3.81812 38.4047 4.17856C38.0065 4.53415 37.4949 4.72713 36.9671 4.72079C36.3972 4.72114 35.915 4.53769 35.5203 4.17043ZM35.8937 13.8743C35.3233 13.2013 35.0381 12.2861 35.0381 11.1285V5.37703H38.8961V10.9613C38.8961 11.2477 38.9718 11.4686 39.1234 11.6241C39.2748 11.7798 39.4717 11.8569 39.7146 11.8569C39.9575 11.8569 40.2062 11.7827 40.4611 11.633L40.6608 14.2276C40.394 14.4399 40.045 14.6018 39.6137 14.7132C39.1763 14.8262 38.727 14.8828 38.276 14.8817C37.2578 14.8826 36.4637 14.5468 35.8937 13.8743Z" fill="#1F95FF"/>
<path d="M41.5353 5.50779H45.1927V7.41177C45.8966 5.9686 47.0127 5.24667 48.5412 5.24597C49.7063 5.24597 50.6195 5.67237 51.2808 6.52516C51.942 7.37796 52.2725 8.5573 52.2722 10.0632V14.7334H48.4505V9.67217C48.4505 9.13719 48.3384 8.7266 48.1142 8.44042C47.8889 8.15423 47.5778 8.01166 47.1764 8.01166C46.8854 8.01166 46.6005 8.10775 46.3216 8.29994C46.0427 8.49213 45.815 8.7688 45.6384 9.12994C45.4627 9.49195 45.3746 9.90254 45.3741 10.3617V14.7334H41.5353V5.50779Z" fill="#1F95FF"/>
<path d="M54.5074 8.58926H59.404V11.502H54.5074V8.58926Z" fill="#1F95FF"/>
<path d="M34.1833 22.4937H38.405L39.8066 28.0946L41.1714 22.4927H44.5014L41.6076 31.8488H37.185L34.1833 22.4937Z" fill="#1F95FF"/>
<path d="M45.7112 21.2874C45.3167 20.9205 45.1195 20.4689 45.1197 19.9327C45.1199 19.3965 45.3262 18.9483 45.7388 18.588C46.151 18.2277 46.624 18.0471 47.158 18.046C47.7159 18.046 48.1982 18.233 48.605 18.6069C49.0118 18.9808 49.2147 19.4227 49.2138 19.9327C49.2138 20.4806 49.0076 20.9349 48.595 21.2955C48.1967 21.651 47.685 21.8439 47.1572 21.8377C46.5879 21.8383 46.1055 21.6535 45.7112 21.2874ZM46.0843 30.991C45.5146 30.318 45.2298 29.4028 45.2298 28.2455V22.4937H49.0862V28.0783C49.0862 28.3645 49.1619 28.5854 49.3135 28.7411C49.465 28.8968 49.6621 28.9742 49.9049 28.9735C50.147 28.9735 50.3959 28.8989 50.6514 28.7497L50.8512 31.3459C50.584 31.5581 50.235 31.7199 49.8041 31.8312C49.3666 31.9442 48.9172 32.0009 48.4661 32C47.4493 31.9996 46.6554 31.6633 46.0843 30.991Z" fill="#1F95FF"/>
<path d="M51.5257 31.42L51.9442 29.1974C52.8173 29.5216 53.6665 29.6835 54.4918 29.683C55.0986 29.683 55.4017 29.51 55.4017 29.1612C55.4017 28.9867 55.3139 28.8428 55.1384 28.7309C54.963 28.619 54.6312 28.5212 54.1462 28.4329C53.139 28.2337 52.4142 27.8975 51.9718 27.4242C51.5295 26.9509 51.3081 26.2782 51.3078 25.4062C51.3558 24.4236 51.738 23.6706 52.4545 23.1473C53.171 22.6241 54.1473 22.362 55.3836 22.3611C56.0148 22.3611 56.5577 22.4018 57.0125 22.4832C57.4445 22.5556 57.8642 22.6907 58.2591 22.8845L57.8772 25.1069C57.5028 24.9646 57.1161 24.8586 56.7224 24.7903C56.3037 24.7162 55.9547 24.6789 55.6753 24.6784C55.2622 24.6784 54.977 24.7221 54.8197 24.8094C54.6616 24.8967 54.5832 25.0159 54.5832 25.1643C54.5832 25.4389 54.8865 25.6323 55.4932 25.7443C56.5968 25.9431 57.4216 26.2914 57.9677 26.7892C58.5137 27.2869 58.7866 27.9653 58.7864 28.8242C58.7864 29.8084 58.4498 30.5836 57.7766 31.1498C57.1034 31.7161 56.1359 31.9993 54.8741 31.9995C53.6002 31.9995 52.4841 31.8063 51.5257 31.42Z" fill="#1F95FF"/>
<path d="M60.397 21.2874C60.0026 20.9205 59.8056 20.4689 59.8057 19.9327C59.8059 19.3965 60.0125 18.9483 60.4256 18.588C60.8378 18.2277 61.3109 18.0471 61.845 18.046C62.403 18.046 62.8852 18.233 63.2918 18.6069C63.6984 18.9808 63.9017 19.4227 63.9017 19.9327C63.9017 20.4806 63.6953 20.9349 63.2826 21.2955C62.8844 21.651 62.3728 21.8439 61.845 21.8377C61.2737 21.8383 60.7915 21.6535 60.397 21.2874ZM60.7703 30.991C60.2 30.318 59.9148 29.4028 59.9148 28.2455V22.4937H63.7732V28.0783C63.7732 28.3645 63.849 28.5854 64.0005 28.7411C64.1521 28.8968 64.3491 28.9742 64.5918 28.9735C64.834 28.9735 65.0829 28.8989 65.3383 28.7497L65.538 31.3459C65.2712 31.5581 64.9221 31.7199 64.4909 31.8312C64.0535 31.9442 63.6042 32.0009 63.1531 32C62.135 31.9996 61.3407 31.6633 60.7703 30.991Z" fill="#1F95FF"/>
<path d="M70.3059 30.1125V31.8493H66.4474V19.543L70.3059 18.9646V24.2496C70.609 23.5897 71.0032 23.1106 71.4886 22.8121C71.974 22.5137 72.5624 22.364 73.2536 22.3629C74.0445 22.3572 74.8217 22.5739 75.5011 22.9893C76.1857 23.4065 76.7253 23.9821 77.12 24.7161C77.5147 25.4501 77.7118 26.2719 77.7112 27.1815C77.7112 28.0783 77.5083 28.8937 77.1024 29.6277C76.6965 30.3617 76.1504 30.9407 75.4641 31.3647C74.7789 31.7879 74.0482 31.9995 73.2718 31.9995C71.8768 31.9995 70.8882 31.3705 70.3059 30.1125ZM73.3811 28.4877C73.733 28.1139 73.9087 27.6794 73.9087 27.1809C73.9087 26.6568 73.7299 26.2149 73.3724 25.8554C73.0148 25.4958 72.5932 25.3151 72.1074 25.3131C71.6103 25.3131 71.1858 25.4905 70.8341 25.8451C70.4823 26.1998 70.3064 26.6198 70.3064 27.1052V27.1809C70.3064 27.7041 70.4852 28.1459 70.8427 28.5065C71.2003 28.8671 71.6217 29.0479 72.1069 29.0488C72.6048 29.0491 73.0295 28.8621 73.3811 28.4877Z" fill="#1F95FF"/>
<path d="M79.7224 30.9999C79.1588 30.3342 78.8767 29.4224 78.876 28.2644V19.543L82.7161 18.9646V27.9837C82.7161 28.3331 82.7981 28.5856 82.962 28.7411C83.126 28.8966 83.414 28.9741 83.826 28.9735C84.1365 28.9719 84.4422 28.8953 84.7184 28.7497L84.8461 31.3647C84.0339 31.7877 83.1241 31.9995 82.1167 32C81.0847 31.9997 80.2867 31.6663 79.7224 30.9999Z" fill="#1F95FF"/>
<path d="M87.639 31.3734C86.8558 30.9562 86.2461 30.3834 85.8097 29.6552C85.3733 28.927 85.1549 28.1024 85.1546 27.1815C85.1546 26.235 85.3791 25.3944 85.8281 24.6595C86.277 23.9247 86.8838 23.3582 87.6482 22.9602C88.4125 22.562 89.2617 22.3629 90.1958 22.3629C91.0932 22.3629 91.8605 22.5654 92.4976 22.9704C93.1223 23.3601 93.6196 23.9321 93.926 24.6131C94.2418 25.305 94.3998 26.0802 94.4 26.9388C94.4 27.1626 94.3872 27.3238 94.363 27.4242L88.904 28.1525C89.0492 28.5893 89.2858 28.9038 89.6137 29.0959C89.9416 29.2881 90.3722 29.3842 90.9055 29.3842C91.7308 29.3842 92.6224 29.1658 93.5805 28.729L94.0358 31.2321C92.9079 31.7437 91.6703 31.9995 90.3232 31.9995C89.3163 31.9995 88.4216 31.7908 87.639 31.3734ZM91.579 25.799C91.3849 25.0158 90.9238 24.6238 90.1958 24.6231C89.7588 24.6231 89.4132 24.7903 89.1584 25.1276C88.9035 25.4649 88.7702 25.8994 88.7582 26.4343L91.579 25.799Z" fill="#1F95FF"/>
<path d="M15.5919 7.74024e-09H14.4202C15.2754 9.27091e-09 16.1115 0.26026 16.8226 0.747867C17.5338 1.23547 18.088 1.92853 18.4153 2.73938C18.7426 3.55024 18.8282 4.44248 18.6613 5.30327C18.4945 6.16407 18.0826 6.95475 17.4778 7.57533C16.873 8.19591 16.1025 8.61852 15.2636 8.78971C14.4248 8.9609 13.5553 8.87298 12.7651 8.53708C11.975 8.20118 11.2996 7.63238 10.8245 6.90261C10.3494 6.17283 10.0958 5.31487 10.0959 4.43721C10.0959 3.85448 10.2077 3.27747 10.425 2.7391C10.6424 2.20074 10.9609 1.71157 11.3624 1.29954C11.764 0.887499 12.2407 0.560662 12.7653 0.337687C13.29 0.114712 13.8523 -3.44099e-05 14.4202 7.74024e-09H0V15.9997C0 24.8367 6.98061 31.9995 15.5916 31.9995C16.2628 31.9995 16.9197 31.9413 17.5686 31.8566C13.7056 31.1412 10.7729 27.6802 10.7729 23.5098V12.8234H8.00473V9.98247H19.0461V22.5097C19.0438 22.9626 19.1675 23.4067 19.4029 23.7899C19.6382 24.1731 19.9752 24.4793 20.3743 24.6726C20.7734 24.8659 21.2181 24.9383 21.6559 24.8811C22.0937 24.824 22.5065 24.6397 22.8458 24.35V30.1579C27.8011 27.4774 31.1833 22.1473 31.1833 15.9997C31.1833 7.16332 24.2029 7.74024e-09 15.5919 7.74024e-09Z" fill="#1F95FF"/>
</svg>
