<svg width="122" height="42" viewBox="0 0 122 42" fill="none" xmlns="http://www.w3.org/2000/svg">
<path d="M30.5035 1.069H11.6397C5.8018 1.069 1.06927 5.78465 1.06927 11.6017V30.3983C1.06927 36.2153 5.8018 40.931 11.6397 40.931H30.5035C36.3414 40.931 41.0739 36.2153 41.0739 30.3983V11.6017C41.0739 5.78465 36.3414 1.069 30.5035 1.069Z" fill="white" stroke="#FA3D4B" stroke-width="0.5" stroke-miterlimit="10"/>
<path d="M49.3951 6.37126V13.0701H48.9214V6.37126H47.0682V5.94344H51.2482V6.37126H49.3951Z" fill="#FA3D4B"/>
<path d="M54.8741 8.71186H55.2924V13.0701H54.8631V12.289C54.678 12.5703 54.4244 12.8003 54.1261 12.9576C53.8277 13.115 53.4942 13.1945 53.1567 13.1888C52.0099 13.1888 51.0238 12.3221 51.0238 10.8896C51.0238 9.54542 51.8825 8.61526 53.1567 8.61526C53.4902 8.60474 53.821 8.67752 54.119 8.82696C54.4171 8.97641 54.6728 9.19778 54.8631 9.4709L54.8741 8.71186ZM51.4864 10.8593C51.4864 11.8419 52.0958 12.7914 53.201 12.7914C54.3063 12.7914 54.8963 11.875 54.8963 10.8593C54.8963 9.56474 53.9406 9.021 53.19 9.021C52.3229 9.021 51.4864 9.67239 51.4864 10.8593V10.8593Z" fill="#FA3D4B"/>
<path d="M58.7134 9.51226C58.6512 9.36318 58.5451 9.2364 58.4091 9.14868C58.2731 9.06095 58.1136 9.01642 57.9516 9.02095C57.8567 9.0161 57.7618 9.03047 57.6726 9.06318C57.5834 9.09588 57.5018 9.14626 57.4326 9.21126C57.3635 9.27626 57.3083 9.35454 57.2704 9.44138C57.2325 9.52822 57.2126 9.62181 57.212 9.71651C57.212 10.1416 57.5555 10.2823 57.9821 10.4535C58.4087 10.6246 58.8297 10.7295 59.1095 11.0938C59.2681 11.2932 59.3479 11.5436 59.3338 11.7977C59.3409 11.9843 59.3084 12.1704 59.2387 12.3437C59.1689 12.5171 59.0633 12.674 58.9288 12.8041C58.7943 12.9342 58.6339 13.0347 58.4579 13.0991C58.2819 13.1634 58.0943 13.1902 57.9073 13.1777C57.563 13.1905 57.2249 13.0843 56.9502 12.877C56.6756 12.6698 56.4813 12.3742 56.4004 12.0405L56.8187 11.9108C56.8716 12.1596 57.0091 12.3825 57.208 12.542C57.4068 12.7014 57.6548 12.7875 57.9101 12.7858C58.0397 12.792 58.1691 12.7713 58.2903 12.7251C58.4115 12.6789 58.5218 12.6082 58.6142 12.5175C58.7066 12.4267 58.7791 12.3178 58.8272 12.1978C58.8752 12.0777 58.8978 11.949 58.8934 11.8197C58.8934 11.3284 58.5804 11.1463 57.9156 10.8785C57.5497 10.7741 57.2181 10.575 56.9544 10.3017C56.8275 10.1403 56.7592 9.94084 56.7605 9.73583C56.758 9.5842 56.7868 9.43368 56.8453 9.29366C56.9037 9.15363 56.9905 9.02711 57.1002 8.92197C57.2098 8.81683 57.3401 8.73533 57.4827 8.68255C57.6254 8.62977 57.7775 8.60685 57.9294 8.61521C58.1699 8.60156 58.4088 8.66172 58.6138 8.78757C58.8189 8.91343 58.9803 9.09893 59.0762 9.31905L58.7134 9.51226Z" fill="#FA3D4B"/>
<path d="M60.8906 9.1176V13.0701H60.4612V9.1176H59.9792V8.71186H60.4612V7.15237H60.8906V8.71186H61.6634V9.1176H60.8906Z" fill="#FA3D4B"/>
<path d="M62.68 10.9365C62.6685 11.1718 62.7047 11.407 62.7865 11.628C62.8684 11.849 62.9942 12.0512 63.1563 12.2226C63.3185 12.394 63.5138 12.531 63.7303 12.6254C63.9469 12.7198 64.1804 12.7697 64.4168 12.772C64.7403 12.7721 65.0567 12.6781 65.3273 12.5016C65.5979 12.3251 65.811 12.0737 65.9403 11.7784L66.3032 11.9936C66.1284 12.352 65.8554 12.6536 65.5156 12.8637C65.1759 13.0737 64.7834 13.1836 64.3836 13.1805C63.0235 13.1805 62.2285 12.1758 62.2285 10.9034C62.2285 9.38531 63.2811 8.60695 64.3531 8.60695C65.5332 8.60695 66.4223 9.54816 66.4223 10.9365H62.68ZM65.9708 10.5308C65.941 10.1218 65.7582 9.73891 65.4587 9.45779C65.1591 9.17668 64.7646 9.01784 64.3531 9.01269C63.9391 9.01676 63.5416 9.17464 63.2383 9.45542C62.935 9.7362 62.7477 10.1197 62.7133 10.5308H65.9708Z" fill="#FA3D4B"/>
<path d="M76.1035 7.39802C75.8078 7.04697 75.4386 6.76455 75.0219 6.57051C74.6051 6.37647 74.1509 6.27549 73.6909 6.27464C73.2624 6.27448 72.8383 6.35992 72.4436 6.5259C72.0488 6.69188 71.6915 6.93504 71.3927 7.241C71.0939 7.54696 70.8597 7.90951 70.704 8.30722C70.5482 8.70492 70.4741 9.12971 70.4859 9.55645C70.483 9.97861 70.5641 10.3972 70.7246 10.7879C70.885 11.1786 71.1216 11.5338 71.4207 11.8328C71.7197 12.1318 72.0753 12.3688 72.4669 12.53C72.8585 12.6912 73.2783 12.7735 73.7019 12.772C74.1549 12.7647 74.6016 12.6652 75.0146 12.4796C75.4276 12.294 75.7982 12.0263 76.1035 11.6928V12.3111C75.4462 12.8874 74.5996 13.2036 73.7241 13.1998C73.2403 13.2013 72.7609 13.1078 72.3134 12.9246C71.8659 12.7415 71.4589 12.4723 71.1158 12.1324C70.7726 11.7926 70.5001 11.3887 70.3136 10.9439C70.1271 10.499 70.0303 10.022 70.0289 9.53989C70.0274 9.05781 70.1213 8.58016 70.3051 8.13422C70.4889 7.68828 70.759 7.28278 71.1001 6.94088C71.4412 6.59897 71.8465 6.32735 72.2929 6.14152C72.7393 5.9557 73.2181 5.85931 73.7019 5.85786C74.5924 5.85051 75.4518 6.18338 76.1035 6.78803V7.39802Z" fill="#FA3D4B"/>
<path d="M81.5411 10.9006C81.5417 11.3534 81.4074 11.7962 81.1553 12.1729C80.9032 12.5496 80.5445 12.8433 80.1248 13.0169C79.7051 13.1904 79.2432 13.2359 78.7975 13.1477C78.3518 13.0595 77.9423 12.8416 77.621 12.5214C77.2997 12.2012 77.0809 11.7932 76.9924 11.3491C76.9039 10.905 76.9496 10.4447 77.1238 10.0265C77.2979 9.60827 77.5927 9.25094 77.9707 8.99972C78.3488 8.74851 78.7931 8.6147 79.2475 8.61525C79.5501 8.6104 79.8505 8.6662 80.131 8.77934C80.4115 8.89248 80.6662 9.06064 80.8802 9.27383C81.0941 9.48702 81.2629 9.74089 81.3764 10.0204C81.49 10.2998 81.546 10.5992 81.5411 10.9006V10.9006ZM81.0896 10.9006C81.0992 10.6534 81.0587 10.4068 80.9704 10.1756C80.8821 9.94439 80.7478 9.73331 80.5757 9.55502C80.4036 9.37672 80.1971 9.23489 79.9686 9.138C79.7402 9.04111 79.4944 8.99118 79.2462 8.99118C78.9979 8.99118 78.7522 9.04111 78.5237 9.138C78.2952 9.23489 78.0888 9.37672 77.9166 9.55502C77.7445 9.73331 77.6103 9.94439 77.522 10.1756C77.4336 10.4068 77.3931 10.6534 77.4027 10.9006C77.3931 11.1479 77.4336 11.3945 77.522 11.6257C77.6103 11.8569 77.7445 12.068 77.9166 12.2463C78.0888 12.4246 78.2952 12.5664 78.5237 12.6633C78.7522 12.7602 78.9979 12.8101 79.2462 12.8101C79.4944 12.8101 79.7402 12.7602 79.9686 12.6633C80.1971 12.5664 80.4036 12.4246 80.5757 12.2463C80.7478 12.068 80.8821 11.8569 80.9704 11.6257C81.0587 11.3945 81.0992 11.1479 81.0896 10.9006Z" fill="#FA3D4B"/>
<path d="M86.3665 5.28098H86.7931V13.0701H86.3665V12.289C86.1824 12.5687 85.9306 12.7977 85.6343 12.9549C85.3381 13.1122 85.0069 13.1926 84.6712 13.1888C83.5632 13.1888 82.5272 12.3966 82.5272 10.8703C82.5272 9.27766 83.6103 8.61523 84.6712 8.61523C85.0031 8.60506 85.3322 8.67807 85.6284 8.82757C85.9246 8.97706 86.1784 9.19826 86.3665 9.47087V5.28098ZM82.9926 10.8592C82.9926 12.1289 83.8236 12.7913 84.7072 12.7913C85.5909 12.7913 86.3997 12.1399 86.3997 10.8592C86.3997 9.84349 85.7681 9.02097 84.6851 9.02097C83.771 9.02097 82.9926 9.642 82.9926 10.8592Z" fill="#FA3D4B"/>
<path d="M88.5105 10.9365C88.4989 11.1718 88.5351 11.407 88.617 11.628C88.6988 11.849 88.8246 12.0512 88.9868 12.2226C89.149 12.394 89.3442 12.531 89.5608 12.6254C89.7774 12.7198 90.0109 12.7697 90.2473 12.772C90.5707 12.7721 90.8871 12.6781 91.1577 12.5016C91.4284 12.3251 91.6414 12.0737 91.7708 11.7784L92.1337 11.9936C91.9589 12.352 91.6858 12.6536 91.3461 12.8637C91.0063 13.0737 90.6138 13.1836 90.214 13.1805C88.854 13.1805 88.059 12.1758 88.059 10.9034C88.059 9.38531 89.1116 8.60695 90.1836 8.60695C91.3636 8.60695 92.2528 9.54816 92.2528 10.9365H88.5105ZM91.8013 10.5308C91.7721 10.1216 91.5895 9.73831 91.2898 9.45707C90.9901 9.17583 90.5952 9.0172 90.1836 9.01269C89.7696 9.01676 89.372 9.17464 89.0687 9.45542C88.7654 9.7362 88.5782 10.1197 88.5437 10.5308H91.8013Z" fill="#FA3D4B"/>
<path d="M61.7382 26.5093C60.6579 25.1954 59.3237 24.5385 57.7355 24.5385C57.0702 24.533 56.4107 24.6616 55.7965 24.9167C55.219 25.1556 54.6958 25.508 54.2579 25.9528C53.8201 26.3976 53.4767 26.9257 53.2481 27.5057C52.7531 28.7646 52.7531 30.1633 53.2481 31.4223C53.6023 32.3124 54.2188 33.0747 55.0164 33.6088C55.814 34.1429 56.7552 34.4237 57.7161 34.4143C59.2064 34.4143 60.548 33.7813 61.741 32.5153V38.0356L61.2645 38.2012C60.6128 38.4352 59.9443 38.6198 59.2646 38.7532C58.6595 38.8709 58.0446 38.931 57.4281 38.9327C54.9733 38.9319 52.6165 37.9727 50.8631 36.2608C49.9849 35.3944 49.2782 34.371 48.7801 33.244C48.265 32.0436 47.9994 30.7516 47.9994 29.446C47.9994 28.1405 48.265 26.8485 48.7801 25.6481C49.5267 23.9743 50.7451 22.5525 52.2871 21.5554C53.8292 20.5583 55.6286 20.0288 57.4668 20.0312C58.1756 20.0314 58.8823 20.1073 59.5748 20.2575C60.3211 20.4257 61.0507 20.6604 61.7548 20.9586L61.7382 26.5093Z" fill="#FA3D4B"/>
<path d="M64.0512 18.7201H68.3641V27.7899C68.8318 27.172 69.4456 26.6789 70.1508 26.3547C70.8266 26.0966 71.5463 25.9719 72.2698 25.9876C73.8118 25.9876 74.9761 26.4108 75.7628 27.2572C76.5495 28.1037 76.9419 29.2473 76.9401 30.6881V38.4165H72.6272V32.2779C72.6388 31.7755 72.5914 31.2734 72.4859 30.7819C72.4156 30.4496 72.2501 30.1447 72.0095 29.9042C71.6272 29.5701 71.1327 29.3917 70.6245 29.4046C70.3133 29.3847 70.0015 29.433 69.711 29.546C69.4205 29.659 69.1584 29.834 68.9431 30.0588C68.5553 30.4949 68.3614 31.1159 68.3614 31.9219V38.4275H64.0512V18.7201Z" fill="#FA3D4B"/>
<path d="M78.9179 32.231C78.9132 31.3579 79.1024 30.4945 79.4719 29.7027C79.8327 28.9236 80.3525 28.228 80.9982 27.6602C81.6788 27.0599 82.4661 26.5919 83.3195 26.2801C84.2634 25.9409 85.2606 25.7726 86.264 25.7833C87.2572 25.7747 88.2444 25.9391 89.1808 26.2691C90.0378 26.5711 90.8306 27.0297 91.5187 27.6216C92.1713 28.2 92.6926 28.9104 93.0478 29.7055C93.4226 30.5374 93.6116 31.4406 93.6018 32.3525C93.6154 33.2647 93.4262 34.1687 93.0478 34.9994C92.6838 35.786 92.1604 36.489 91.5104 37.064C90.8262 37.663 90.0284 38.1192 89.1642 38.4055C88.2093 38.73 87.2063 38.8914 86.1975 38.883C85.2076 38.892 84.2236 38.7305 83.289 38.4055C82.4394 38.1127 81.6575 37.6528 80.9899 37.053C80.3453 36.4647 79.8303 35.7494 79.4774 34.9525C79.0989 34.0953 78.9082 33.1675 78.9179 32.231V32.231ZM83.469 32.2779C83.4643 32.666 83.5417 33.0506 83.6962 33.4068C83.8391 33.7366 84.0409 34.0377 84.2917 34.2956C84.5411 34.5519 84.841 34.754 85.1726 34.889C85.5164 35.0311 85.8849 35.1042 86.2571 35.1042C86.6292 35.1042 86.9977 35.0311 87.3415 34.889C87.6731 34.754 87.9731 34.5519 88.2224 34.2956C88.4733 34.0377 88.675 33.7366 88.8179 33.4068C88.9711 33.0589 89.0485 32.6827 89.0451 32.3028C89.0471 31.9302 88.9697 31.5614 88.8179 31.2208C88.6744 30.8914 88.4727 30.5904 88.2224 30.332C87.9731 30.0757 87.6731 29.8737 87.3415 29.7386C86.9977 29.5965 86.6292 29.5234 86.2571 29.5234C85.8849 29.5234 85.5164 29.5965 85.1726 29.7386C84.841 29.8737 84.5411 30.0757 84.2917 30.332C84.0435 30.5879 83.8419 30.8849 83.6962 31.2098C83.5434 31.5451 83.4659 31.9097 83.469 32.2779V32.2779Z" fill="#FA3D4B"/>
<path d="M104.82 30.1885C104.161 29.712 103.372 29.4472 102.557 29.4295C102.161 29.4264 101.768 29.4986 101.399 29.642C101.049 29.7805 100.73 29.9869 100.46 30.2492C100.188 30.5106 99.9729 30.8255 99.8288 31.1739C99.6722 31.5546 99.5949 31.9631 99.6016 32.3746C99.5967 32.7769 99.674 33.176 99.8288 33.5476C99.9726 33.8936 100.182 34.2086 100.446 34.475C100.715 34.7395 101.036 34.9454 101.388 35.0795C101.761 35.2245 102.157 35.2975 102.557 35.2948C103.385 35.2876 104.185 34.995 104.82 34.4667V38.1212C103.87 38.5563 102.839 38.7912 101.793 38.8112C100.926 38.8148 100.067 38.6614 99.2554 38.3585C98.4711 38.0689 97.7512 37.6291 97.1363 37.064C96.5177 36.4956 96.0195 35.8096 95.671 35.0464C95.2949 34.2236 95.1057 33.3283 95.117 32.4242C95.1054 31.5153 95.2837 30.6139 95.6405 29.7773C95.9741 29.0002 96.46 28.2974 97.0698 27.7099C97.6915 27.1203 98.4251 26.6605 99.2277 26.3574C100.082 26.0288 100.991 25.864 101.906 25.8717C102.915 25.8622 103.911 26.0891 104.815 26.5341L104.82 30.1885Z" fill="#FA3D4B"/>
<path d="M106.322 32.231C106.317 31.3579 106.506 30.4945 106.876 29.7027C107.236 28.9237 107.754 28.2281 108.399 27.6602C109.081 27.0599 109.869 26.5918 110.723 26.2802C111.666 25.9411 112.663 25.7728 113.665 25.7833C114.659 25.7745 115.647 25.9389 116.585 26.2691C117.441 26.5705 118.233 27.0292 118.92 27.6216C119.574 28.1937 120.098 28.8986 120.457 29.6889C120.832 30.5209 121.021 31.424 121.011 32.3359C121.023 33.2254 120.842 34.107 120.48 34.9202C120.118 35.7335 119.584 36.4591 118.914 37.0475C118.229 37.6459 117.43 38.102 116.565 38.3889C115.611 38.7139 114.607 38.8753 113.599 38.8664C112.61 38.8801 111.627 38.7232 110.693 38.4027C109.843 38.1106 109.061 37.6506 108.394 37.0502C107.744 36.4637 107.225 35.7482 106.87 34.9498C106.496 34.0926 106.309 33.1658 106.322 32.231V32.231ZM110.873 32.2779C110.868 32.6657 110.945 33.0501 111.097 33.4068C111.242 33.7361 111.445 34.037 111.696 34.2956C111.944 34.5531 112.244 34.7554 112.576 34.889C112.92 35.0311 113.289 35.1042 113.661 35.1042C114.033 35.1042 114.402 35.0311 114.745 34.889C115.077 34.754 115.377 34.5519 115.626 34.2956C115.876 34.037 116.078 33.736 116.222 33.4068C116.374 33.0586 116.451 32.6825 116.449 32.3028C116.45 31.9303 116.372 31.5618 116.222 31.2208C116.077 30.892 115.876 30.5911 115.626 30.332C115.377 30.0757 115.077 29.8737 114.745 29.7386C114.402 29.5966 114.033 29.5234 113.661 29.5234C113.289 29.5234 112.92 29.5966 112.576 29.7386C112.244 29.8723 111.944 30.0745 111.696 30.332C111.447 30.5885 111.245 30.8853 111.097 31.2098C110.947 31.5457 110.87 31.91 110.873 32.2779V32.2779Z" fill="#FA3D4B"/>
<path d="M18.5786 15.6011V22.5153L24.5895 25.9738H24.5923L30.6004 22.5153H30.6032V15.6011H30.6004L24.5895 19.0568L18.5786 15.6011Z" fill="#FA3D4B"/>
<path d="M11.5399 19.4791V26.4016L17.5509 29.86L23.5646 26.3988V19.4791L17.5509 22.9376L11.5427 19.4791H11.5399Z" fill="#FA3D4B"/>
<path d="M18.3819 21.817V21.8231" stroke="#00FFFF" stroke-width="0.75" stroke-miterlimit="10"/>
<path d="M11.817 11.4444V18.3613L17.8279 21.817H17.8307L23.8416 18.3613V11.4444H23.8388L17.8279 14.9028L11.817 11.4444Z" fill="#FA3D4B"/>
<path d="M4.77832 15.3251V22.2448L10.7893 25.7033H10.792L16.803 22.2448V15.3251L10.792 18.7808H10.7893L4.77832 15.3251Z" fill="#FA3D4B"/>
<path d="M25.3402 19.7607V26.6748L31.3512 30.1333L37.3621 26.6748H37.3649V19.7552L31.3512 23.2191L25.3402 19.7607Z" fill="#FA3D4B"/>
<path d="M18.3016 23.6387V30.5556L24.3097 34.0141H24.3125L30.3262 30.5556V23.6387L24.3153 27.0971L24.3125 27.0999V27.0971L18.3016 23.6387Z" fill="#FA3D4B"/>
<path d="M18.8556 15.6011L24.5923 12.3028L30.3235 15.6011L24.5895 18.8995L18.8556 15.6011Z" fill="white"/>
<path d="M24.5923 12.4601L30.0464 15.6012L24.5895 18.7394L19.1326 15.6012L24.5923 12.4601ZM24.5923 12.1427L18.5786 15.6012L24.5895 19.0596L30.6004 15.6012L24.5923 12.1427V12.1427Z" fill="#FA3D4B"/>
<path d="M12.0912 11.4416L17.8279 8.14325L23.5618 11.4444L17.8279 14.7428L12.0912 11.4416Z" fill="white"/>
<path d="M17.8279 8.30333L23.2848 11.4444L17.8279 14.5827L12.3571 11.4416L17.8279 8.30333ZM17.8279 7.98592L11.817 11.4416L17.8279 14.9001L23.8388 11.4416L17.8279 7.98592V7.98592Z" fill="#FA3D4B"/>
<path d="M5.05536 15.3251L10.7893 12.024L16.526 15.3251L10.7893 18.6235L5.05536 15.3251Z" fill="white"/>
<path d="M10.7893 12.1814L16.249 15.3252L10.792 18.4634L5.33232 15.3252L10.7893 12.1814ZM10.7893 11.8639L4.77832 15.3252L10.7893 18.7836L16.803 15.3252L10.792 11.8667L10.7893 11.8639Z" fill="#FA3D4B"/>
<path d="M11.8197 19.4791L17.5536 16.1835L23.2876 19.4791L17.5509 22.7803L11.8197 19.4791Z" fill="white"/>
<path d="M17.5537 16.3409L23.0106 19.493L17.5509 22.6202L12.0967 19.493L17.5537 16.3519V16.3409ZM17.5537 16.0345L11.5427 19.493L17.5509 22.9404L23.5646 19.493L17.5537 16.0235V16.0345Z" fill="#FA3D4B"/>
<path d="M25.6144 19.7579L31.3512 16.4568L37.0879 19.7552L31.3512 23.0591L25.6144 19.7579Z" fill="white"/>
<path d="M31.3512 16.6169L36.8109 19.769L31.3512 22.899L25.8914 19.769L31.3512 16.6279V16.6169ZM31.3512 16.3105L25.3402 19.769L31.3512 23.2274L37.3649 19.769L31.3512 16.2995V16.3105Z" fill="#FA3D4B"/>
<path d="M18.5786 23.6387L24.3153 20.3376L30.0492 23.6387L24.3153 26.9371L18.5786 23.6387Z" fill="white"/>
<path d="M24.3153 20.4977L29.7722 23.6332L24.3153 26.777L18.8556 23.6332L24.3153 20.4977ZM24.3153 20.1802L18.3016 23.6332L24.3125 27.0916L30.3262 23.6332L24.3153 20.1802Z" fill="#FA3D4B"/>
</svg>
