<svg width="96" height="32" viewBox="0 0 96 32" fill="none" xmlns="http://www.w3.org/2000/svg">
<path d="M36.1224 4.17043C35.7214 3.80353 35.5209 3.35197 35.5211 2.81576C35.5213 2.27955 35.7311 1.8314 36.1504 1.47131C36.5696 1.1107 37.0508 0.929951 37.5939 0.929077C38.1613 0.929077 38.6518 1.11611 39.0653 1.49018C39.4787 1.86425 39.6854 2.30611 39.6852 2.81576C39.6852 3.36385 39.4754 3.81812 39.0556 4.17856C38.6507 4.53415 38.1304 4.72713 37.5937 4.72079C37.0142 4.72114 36.5237 4.53769 36.1224 4.17043ZM36.5021 13.8743C35.922 13.2013 35.632 12.2861 35.632 11.1285V5.37703H39.5553V10.9613C39.5553 11.2477 39.6324 11.4686 39.7865 11.6241C39.9405 11.7798 40.1408 11.8569 40.3877 11.8569C40.6347 11.8569 40.8877 11.7827 41.1469 11.633L41.35 14.2276C41.0787 14.4399 40.7237 14.6018 40.2852 14.7132C39.8404 14.8262 39.3834 14.8828 38.9247 14.8817C37.8893 14.8826 37.0818 14.5468 36.5021 13.8743Z" fill="white"/>
<path d="M42.2393 5.50779H45.9587V7.41177C46.6745 5.9686 47.8096 5.24667 49.3639 5.24597C50.5487 5.24597 51.4774 5.67237 52.1499 6.52516C52.8224 7.37796 53.1585 8.5573 53.1581 10.0632V14.7334H49.2717V9.67217C49.2717 9.13719 49.1577 8.7266 48.9296 8.44042C48.7006 8.15423 48.3842 8.01166 47.9759 8.01166C47.68 8.01166 47.3903 8.10775 47.1067 8.29994C46.8231 8.49213 46.5915 8.7688 46.4119 9.12994C46.2332 9.49195 46.1436 9.90254 46.1431 10.3617V14.7334H42.2393V5.50779Z" fill="white"/>
<path d="M55.4312 8.58923H60.4108V11.5019H55.4312V8.58923Z" fill="white"/>
<path d="M34.7627 22.4937H39.0559L40.4812 28.0946L41.8692 22.4927H45.2556L42.3128 31.8488H37.8152L34.7627 22.4937Z" fill="white"/>
<path d="M46.486 21.2874C46.0848 20.9205 45.8843 20.4689 45.8845 19.9327C45.8846 19.3965 46.0945 18.9483 46.514 18.588C46.9332 18.2277 47.4143 18.0471 47.9573 18.046C48.5247 18.046 49.0152 18.233 49.4288 18.6069C49.8425 18.9808 50.0489 19.4227 50.048 19.9327C50.048 20.4806 49.8382 20.9349 49.4187 21.2955C49.0136 21.651 48.4933 21.8439 47.9565 21.8377C47.3776 21.8383 46.887 21.6535 46.486 21.2874ZM46.8654 30.991C46.2861 30.318 45.9964 29.4028 45.9964 28.2455V22.4937H49.9182V28.0783C49.9182 28.3645 49.9952 28.5854 50.1493 28.7411C50.3034 28.8968 50.5039 28.9742 50.7508 28.9735C50.997 28.9735 51.2501 28.8989 51.51 28.7497L51.7131 31.3459C51.4414 31.5581 51.0865 31.7199 50.6482 31.8312C50.2034 31.9442 49.7463 32.0009 49.2876 32C48.2535 31.9996 47.4461 31.6633 46.8654 30.991Z" fill="white"/>
<path d="M52.399 31.42L52.8247 29.1973C53.7126 29.5216 54.5761 29.6835 55.4154 29.683C56.0325 29.683 56.3408 29.51 56.3408 29.1612C56.3408 28.9866 56.2514 28.8428 56.073 28.7308C55.8946 28.6189 55.5572 28.5212 55.064 28.4329C54.0396 28.2337 53.3025 27.8974 52.8527 27.4241C52.4029 26.9508 52.1778 26.2782 52.1774 25.4061C52.2263 24.4235 52.615 23.6706 53.3436 23.1473C54.0722 22.624 55.0651 22.362 56.3223 22.3611C56.9642 22.3611 57.5163 22.4018 57.9788 22.4832C58.4181 22.5555 58.845 22.6906 59.2465 22.8845L58.8582 25.1069C58.4774 24.9645 58.0842 24.8585 57.6838 24.7903C57.258 24.7162 56.903 24.6789 56.6189 24.6784C56.1989 24.6784 55.9088 24.722 55.7488 24.8094C55.5881 24.8967 55.5083 25.0159 55.5083 25.1643C55.5083 25.4389 55.8168 25.6322 56.4337 25.7442C57.5561 25.9431 58.3949 26.2914 58.9502 26.7891C59.5054 27.2869 59.783 27.9652 59.7828 28.8241C59.7828 29.8083 59.4405 30.5836 58.7559 31.1498C58.0713 31.7161 57.0874 31.9993 55.8042 31.9995C54.5087 31.9995 53.3736 31.8063 52.399 31.42Z" fill="white"/>
<path d="M61.4206 21.2874C61.0196 20.9205 60.8192 20.4689 60.8194 19.9327C60.8196 19.3965 61.0297 18.9483 61.4497 18.588C61.8689 18.2277 62.3501 18.0471 62.8933 18.046C63.4607 18.046 63.9511 18.233 64.3646 18.6069C64.778 18.9808 64.9848 19.4227 64.9848 19.9327C64.9848 20.4806 64.7749 20.9349 64.3552 21.2955C63.9503 21.651 63.43 21.8439 62.8933 21.8377C62.3123 21.8383 61.8219 21.6535 61.4206 21.2874ZM61.8004 30.991C61.2203 30.318 60.9303 29.4028 60.9303 28.2455V22.4937H64.8541V28.0783C64.8541 28.3645 64.9312 28.5854 65.0853 28.7411C65.2394 28.8968 65.4398 28.9742 65.6865 28.9735C65.9329 28.9735 66.186 28.8989 66.4457 28.7497L66.6488 31.3459C66.3775 31.5581 66.0225 31.7199 65.584 31.8312C65.1392 31.9442 64.6822 32.0009 64.2235 32C63.1881 31.9996 62.3804 31.6633 61.8004 30.991Z" fill="white"/>
<path d="M71.4975 30.1125V31.8493H67.5737V19.543L71.4975 18.9646V24.2496C71.8057 23.5897 72.2066 23.1106 72.7003 22.8121C73.1939 22.5137 73.7922 22.364 74.4952 22.3629C75.2994 22.3572 76.0899 22.5739 76.7807 22.9893C77.477 23.4065 78.0258 23.9821 78.4271 24.7161C78.8285 25.4501 79.0289 26.2719 79.0284 27.1815C79.0284 28.0783 78.822 28.8937 78.4092 29.6277C77.9964 30.3617 77.441 30.9407 76.7431 31.3647C76.0463 31.7879 75.3032 31.9995 74.5136 31.9995C73.0951 31.9995 72.0897 31.3705 71.4975 30.1125ZM74.6248 28.4877C74.9827 28.1139 75.1614 27.6794 75.1614 27.1809C75.1614 26.6568 74.9796 26.2149 74.616 25.8554C74.2524 25.4958 73.8236 25.3151 73.3296 25.3131C72.824 25.3131 72.3923 25.4905 72.0346 25.8451C71.6769 26.1998 71.498 26.6198 71.498 27.1052V27.1809C71.498 27.7041 71.6798 28.1459 72.0434 28.5065C72.4071 28.8671 72.8356 29.0479 73.3291 29.0488C73.8353 29.0491 74.2673 28.8621 74.6248 28.4877Z" fill="white"/>
<path d="M81.0737 30.9999C80.5006 30.3342 80.2136 29.4224 80.213 28.2644V19.543L84.1181 18.9646V27.9837C84.1181 28.3331 84.2015 28.5856 84.3682 28.7411C84.5349 28.8966 84.8278 28.9741 85.2468 28.9735C85.5626 28.9719 85.8734 28.8953 86.1543 28.7497L86.2842 31.3647C85.4582 31.7877 84.533 31.9995 83.5085 32C82.4591 31.9997 81.6475 31.6663 81.0737 30.9999Z" fill="white"/>
<path d="M89.1245 31.3734C88.328 30.9561 87.7079 30.3834 87.2641 29.6552C86.8203 28.927 86.5982 28.1024 86.5979 27.1814C86.5979 26.235 86.8262 25.3943 87.2828 24.6595C87.7394 23.9246 88.3564 23.3582 89.1338 22.9602C89.9111 22.562 90.7746 22.3629 91.7245 22.3629C92.6372 22.3629 93.4175 22.5654 94.0654 22.9704C94.7006 23.3601 95.2063 23.932 95.518 24.6131C95.8392 25.305 95.9998 26.0802 96 26.9388C96 27.1626 95.987 27.3238 95.9624 27.4241L90.4109 28.1524C90.5585 28.5892 90.7991 28.9037 91.1326 29.0959C91.4661 29.2881 91.904 29.3842 92.4463 29.3842C93.2855 29.3842 94.1923 29.1658 95.1666 28.729L95.6297 31.2321C94.4826 31.7437 93.224 31.9995 91.8541 31.9995C90.8301 31.9995 89.9202 31.7908 89.1245 31.3734ZM93.1312 25.799C92.9338 25.0157 92.4649 24.6238 91.7245 24.6231C91.2801 24.6231 90.9287 24.7903 90.6695 25.1276C90.4103 25.4648 90.2748 25.8994 90.2625 26.4343L93.1312 25.799Z" fill="white"/>
<path d="M15.8562 7.74024e-09H14.6646C15.5343 9.27091e-09 16.3846 0.26026 17.1078 0.747867C17.8309 1.23547 18.3946 1.92853 18.7274 2.73938C19.0603 3.55024 19.1473 4.44248 18.9776 5.30327C18.8079 6.16407 18.3891 6.95475 17.774 7.57533C17.159 8.19591 16.3754 8.61852 15.5223 8.78971C14.6693 8.9609 13.7851 8.87298 12.9815 8.53708C12.178 8.20118 11.4912 7.63238 11.008 6.90261C10.5248 6.17283 10.2669 5.31487 10.267 4.43721C10.267 3.85448 10.3807 3.27747 10.6017 2.7391C10.8227 2.20074 11.1467 1.71157 11.555 1.29954C11.9634 0.887499 12.4482 0.560662 12.9817 0.337687C13.5152 0.114712 14.0871 -3.44099e-05 14.6646 7.74024e-09H0V15.9997C0 24.8367 7.09892 31.9995 15.8559 31.9995C16.5384 31.9995 17.2064 31.9413 17.8664 31.8566C13.9379 31.1412 10.9555 27.6802 10.9555 23.5098V12.8234H8.1404V9.98247H19.3689V22.5097C19.3665 22.9626 19.4924 23.4067 19.7317 23.7899C19.971 24.1731 20.3138 24.4793 20.7196 24.6726C21.1255 24.8659 21.5777 24.9383 22.0229 24.8811C22.4682 24.824 22.888 24.6397 23.233 24.35V30.1579C28.2723 27.4774 31.7118 22.1473 31.7118 15.9997C31.7118 7.16332 24.6131 7.74024e-09 15.8562 7.74024e-09Z" fill="white"/>
</svg>
