<svg xmlns="http://www.w3.org/2000/svg" viewBox="0 0 32 32"><defs><style>.cls-1{fill:#1f95ff;}.cls-2{fill:#fff;}</style></defs><g id="레이어_2" data-name="레이어 2"><g id="레이어_1-2" data-name="레이어 1"><path class="cls-1" d="M16,0H14.8a4.44,4.44,0,1,1-4.44,4.44A4.44,4.44,0,0,1,14.8,0H0V16A16,16,0,0,0,16,32h0a17,17,0,0,0,2-.14,8.48,8.48,0,0,1-7-8.35V12.82H8.21V10H19.54V22.51a2.4,2.4,0,0,0,2.4,2.39,2.34,2.34,0,0,0,1.5-.55v5.81A16,16,0,0,0,16,0Z"/><path class="cls-2" d="M10.36,4.44A4.44,4.44,0,1,0,14.8,0,4.43,4.43,0,0,0,10.36,4.44Z"/><path class="cls-2" d="M21.94,24.9a2.4,2.4,0,0,1-2.4-2.39V10H8.21v2.84h2.85V23.51a8.48,8.48,0,0,0,7,8.35,16,16,0,0,0,5.41-1.7V24.35A2.34,2.34,0,0,1,21.94,24.9Z"/></g></g></svg>