<svg xmlns="http://www.w3.org/2000/svg" viewBox="0 0 861.38 861.39"><defs><style>.cls-1{fill:#1f95ff;}.cls-2{fill:#fff;}</style></defs><g id="레이어_2" data-name="레이어 2"><g id="레이어_1-2" data-name="레이어 1"><path class="cls-1" d="M430.69,0H398.33A119.45,119.45,0,1,1,278.88,119.44,119.44,119.44,0,0,1,398.33,0H0V430.69c0,237.87,192.83,430.7,430.69,430.7h0a431.54,431.54,0,0,0,54.61-3.85C378.6,838.28,297.58,745.12,297.58,632.86V345.19H221.12V268.71h305V605.9a64,64,0,0,0,105,49.53V811.77C768,739.64,861.38,596.17,861.38,430.69,861.38,192.83,668.55,0,430.69,0Z"/><path class="cls-2" d="M278.88,119.44A119.45,119.45,0,1,0,398.33,0,119.45,119.45,0,0,0,278.88,119.44Z"/><path class="cls-2" d="M590.46,670.24a64.35,64.35,0,0,1-64.35-64.34V268.71h-305v76.48h76.46V632.86c0,112.26,81,205.42,187.72,224.68a427.49,427.49,0,0,0,145.77-45.77V655.43A63.81,63.81,0,0,1,590.46,670.24Z"/></g></g></svg>