<svg width="20" height="28" viewBox="0 0 20 28" fill="none" xmlns="http://www.w3.org/2000/svg">
<path d="M4 24.7C6.2 24.6 8.4 24.1 10.5 23.2C12.5 22.3 14.3 21.1 15.7 19.3C16.3 18.5 16.7 17.6 16.8 16.6C16.9 15 16.1 14.2 14.6 14.2C13.5 14.2 12.5 14.6 11.6 15.2C10.1 16.1 8.8 17.3 7.5 18.5C7.4 18.6 7.3 18.8 7.2 18.9C7.1 18.9 7.1 18.8 7 18.8C7.1 18.6 7.2 18.4 7.3 18.3C8.9 15.5 10.8 13 13.1 10.8C13.4 10.5 13.8 10.1 14 9.69997C14.4 9.19997 14.5 8.59997 14.1 7.99997C14.2 7.89997 14.4 7.79997 14.5 7.79997C16.7 6.49997 18.3 4.79997 19.2 2.39997C19.3 1.99997 19.4 1.69997 19.5 1.29997C19.5 0.799971 19.2 0.499971 18.7 0.599971C18.3 0.699971 18 0.899971 17.7 1.09997C16.5 1.89997 15.5 2.79997 14.6 3.99997C13.3 5.89997 11.9 7.79997 10.7 9.79997C8 14.3 5.4 18.9 2.8 23.5C2.7 23.6 2.6 23.8 2.5 23.9C2.1 23.7 1.7 23.5 1.3 23.3C1.2 23.4 1.2 23.6 1.1 23.7C1.4 23.9 1.8 24.2 2.2 24.4C1.6 25.5 1 26.5 0.300003 27.6C0.400003 27.6 0.500003 27.7 0.500003 27.6C1.1 27.3 1.8 27 2.4 26.7C2.6 26.6 2.7 26.2 2.9 26C3 25.8 3 25.6 3.1 25.4C3.2 24.9 3.5 24.7 4 24.7ZM18 1.69997C18 1.79997 18 1.89997 18 1.99997C17.3 3.79997 16.2 5.29997 14.7 6.49997C14.4 6.79997 14 7.09997 13.7 7.29997C13.3 7.59997 13.1 7.79997 13.4 8.29997C13.6 8.59997 13.4 8.89997 13.2 9.09997C12.5 9.79997 11.8 10.4 11.3 10.9C12.8 7.69997 15.2 4.59997 18 1.69997ZM8.8 18.1C9.9 17.1 11.1 16.2 12.5 15.5C12.9 15.3 13.3 15.2 13.7 15.1C14.4 15 14.8 15.4 14.8 16.1C14.8 17 14.4 17.7 14 18.5C13.2 19.7 12.2 20.7 11 21.6C8.9 23 6.5 23.6 4 23.9C5.4 21.8 7 19.8 8.8 18.1Z" fill="white"/>
</svg>
