<svg width="2" height="6" viewBox="0 0 2 6" fill="none" xmlns="http://www.w3.org/2000/svg">
<path d="M0.708344 3.22919C0.708344 3.81252 0.708344 4.46877 0.708344 5.0521C0.708344 5.19794 0.781261 5.19794 0.854177 5.19794C1.07293 5.19794 1.29168 5.19794 1.58334 5.19794C1.72918 5.19794 1.72918 5.12502 1.72918 4.97919C1.72918 4.76044 1.72918 4.6146 1.72918 4.39585C1.72918 3.81252 1.72918 3.22919 1.72918 2.64585C1.72918 1.84377 1.72918 1.1146 1.72918 0.312521C1.72918 0.166688 1.72918 0.166687 1.58334 0.166687C1.36459 0.166687 1.14584 0.166687 0.854177 0.166687C0.708344 0.166687 0.708344 0.239603 0.708344 0.385436C0.708344 1.33335 0.708344 2.28127 0.708344 3.22919Z" fill="#515151"/>
</svg>
