<svg width="30" height="30" viewBox="0 0 30 30" fill="none" xmlns="http://www.w3.org/2000/svg">
<path d="M21.9001 29.1999C17.3001 29.1999 12.6001 29.1999 8.00006 29.1999C7.90006 29.1999 7.80006 29.1999 7.70006 29.1999C6.90006 29.0999 6.20006 28.8999 5.50006 28.5999C2.40006 27.1999 0.80006 24.6999 0.80006 21.3999C0.70006 17.1999 0.80006 12.9999 0.80006 8.6999C0.80006 7.2999 1.10006 5.9999 1.80006 4.8999C3.40006 2.1999 5.70006 0.899902 8.80006 0.899902C12.9001 0.899902 17.1001 0.899902 21.2001 0.899902C21.7001 0.899902 22.3001 0.899902 22.8001 0.999902C26.0001 1.6999 28.1001 3.6999 29.0001 6.7999C29.1001 7.1999 29.2001 7.6999 29.2001 8.0999C29.2001 12.6999 29.2001 17.3999 29.2001 21.9999C29.2001 22.2999 29.1001 22.5999 29.1001 22.8999C28.4001 26.0999 26.4001 28.1999 23.2001 29.0999C22.8001 29.0999 22.4001 29.0999 21.9001 29.1999ZM15.0001 3.2999C12.9001 3.2999 10.9001 3.2999 8.80006 3.2999C8.20006 3.2999 7.50006 3.3999 6.90006 3.5999C4.60006 4.3999 3.30006 6.2999 3.30006 8.7999C3.30006 12.8999 3.30006 17.0999 3.30006 21.1999C3.30006 21.7999 3.40006 22.4999 3.60006 22.9999C4.40006 25.2999 6.30006 26.5999 8.80006 26.5999C12.9001 26.5999 17.1001 26.5999 21.2001 26.5999C21.8001 26.5999 22.5001 26.4999 23.0001 26.2999C25.3001 25.4999 26.6001 23.5999 26.6001 21.1999C26.6001 16.9999 26.6001 12.8999 26.6001 8.6999C26.6001 6.7999 25.8001 5.2999 24.3001 4.1999C23.3001 3.4999 22.2001 3.1999 21.1001 3.1999C19.1001 3.2999 17.1001 3.2999 15.0001 3.2999Z" fill="white"/>
</svg>
