<svg width="12" height="14" viewBox="0 0 12 14" fill="none" xmlns="http://www.w3.org/2000/svg">
<path d="M11.54 3.29999C11.26 2.38999 10.77 1.68999 9.93 1.26999C9.3 0.919993 8.67 0.779992 7.97 0.779992C6.92 0.709992 5.94 0.849992 5.1 1.47999C4.61 1.75999 4.26 2.17999 3.91 2.66999C3.91 2.59999 3.91 2.59999 3.91 2.52999C3.91 2.10999 3.91 1.68999 3.91 1.33999C3.91 1.12999 3.91 1.12999 3.7 1.12999C2.65 1.12999 1.6 1.12999 0.549996 1.12999C0.339996 1.12999 0.339996 1.12999 0.339996 1.33999C0.339996 5.18999 0.339996 8.96999 0.339996 12.82C0.339996 12.96 0.409996 13.03 0.549996 13.03C1.67 13.03 2.72 13.03 3.84 13.03C4.05 13.03 4.05 13.03 4.05 12.82C4.05 10.93 4.05 9.03999 4.05 7.14999C4.05 6.65999 4.12 6.23999 4.19 5.74999C4.33 4.97999 4.75 4.41999 5.52 4.20999C5.87 4.13999 6.22 4.06999 6.57 4.13999C7.2 4.20999 7.62 4.55999 7.83 5.11999C8.04 5.53999 8.11 6.02999 8.11 6.51999C8.11 8.61999 8.11 10.72 8.11 12.82C8.11 13.03 8.11 13.03 8.32 13.03C9.44 13.03 10.49 13.03 11.61 13.03C11.82 13.03 11.82 13.03 11.82 12.82C11.82 10.58 11.82 8.40999 11.82 6.16999C11.89 5.11999 11.82 4.13999 11.54 3.29999Z" fill="#515151"/>
</svg>
