<svg width="15" height="28" viewBox="0 0 15 28" fill="none" xmlns="http://www.w3.org/2000/svg">
<path d="M14.9 5.10005C13.9 5.10005 12.9 5.10005 11.9 5.10005C10.6 5.10005 10.2 5.50005 10.1 6.80005C10.1 7.50005 10.1 8.10005 10.1 8.80005C10.1 9.30005 10.3 9.40005 10.7 9.40005C12.1 9.40005 13.4 9.40005 14.8 9.40005C14.7 10.2 14.6 10.9 14.5 11.7C14.4 12.5 14.3 13.2 14.2 14C12.8 14 11.5 14 10 14C10 18.6 10 23.1 10 27.7001C9.7 27.7001 9.4 27.7001 9.2 27.7001C7.7 27.7001 6.2 27.7001 4.7 27.7001C3.8 27.7001 3.8 27.7 3.8 26.8C3.8 22.8 3.8 18.8 3.8 14.8C3.8 14.6 3.8 14.3 3.8 14C2.8 14 1.8 14 0.800003 14C0.800003 12.5 0.800003 11 0.800003 9.40005C1.6 9.40005 2.3 9.40005 3.1 9.40005C3.6 9.40005 3.8 9.20005 3.8 8.70005C3.8 7.50005 3.8 6.30005 3.8 5.10005C4 2.50005 5.4 0.900049 7.9 0.500049C9.2 0.300049 10.6 0.300049 12 0.300049C12.8 0.300049 13.5 0.300049 14.3 0.300049C14.5 0.300049 14.7 0.500049 14.7 0.600049C15 2.10005 14.9 3.60005 14.9 5.10005Z" fill="white"/>
</svg>
