<svg width="32" height="32" viewBox="0 0 32 32" fill="none" xmlns="http://www.w3.org/2000/svg">
<path fill-rule="evenodd" clip-rule="evenodd" d="M16.0001 0.900024C7.40012 0.900024 0.500122 7.80003 0.500122 16.4C0.500122 23.2 4.90012 29.1 11.1001 31.1C11.9001 31.2 12.2001 30.8 12.2001 30.4C12.2001 30 12.2001 29.1 12.2001 27.8C7.90012 28.7 7.00012 25.7 7.00012 25.7C6.30012 23.9 5.30012 23.4 5.30012 23.4C3.90012 22.4 5.40012 22.5 5.40012 22.5C7.00012 22.6 7.80012 24.1 7.80012 24.1C9.20012 26.5 11.4001 25.8 12.3001 25.4C12.4001 24.4 12.8001 23.7 13.3001 23.3C9.90012 22.9 6.20012 21.6 6.20012 15.6C6.20012 13.9 6.80012 12.5 7.80012 11.4C7.60012 11 7.10012 9.40003 8.00012 7.30003C8.00012 7.30003 9.30012 6.90003 12.3001 8.90003C13.5001 8.60003 14.9001 8.40003 16.2001 8.40003C17.5001 8.40003 18.8001 8.60003 20.1001 8.90003C23.1001 6.90003 24.4001 7.30003 24.4001 7.30003C25.2001 9.40003 24.7001 11 24.6001 11.4C25.6001 12.5 26.2001 13.9 26.2001 15.6C26.2001 21.6 22.6001 22.9 19.1001 23.2C19.7001 23.7 20.2001 24.6 20.2001 26.1C20.2001 28.2 20.2001 29.8 20.2001 30.4C20.2001 30.8 20.5001 31.3 21.3001 31.1C27.5001 29 31.9001 23.2 31.9001 16.4C31.5001 7.80003 24.6001 0.900024 16.0001 0.900024Z" fill="white"/>
</svg>
