<svg width="12" height="14" viewBox="0 0 12 14" fill="none" xmlns="http://www.w3.org/2000/svg">
<path d="M11.54 3.29993C11.26 2.38993 10.77 1.68993 9.93 1.26993C9.3 0.919932 8.67 0.779931 7.97 0.779931C6.92 0.709931 5.94 0.849931 5.1 1.47993C4.61 1.75993 4.26 2.17993 3.91 2.66993C3.91 2.59993 3.91 2.59993 3.91 2.52993C3.91 2.10993 3.91 1.68993 3.91 1.33993C3.91 1.12993 3.91 1.12993 3.7 1.12993C2.65 1.12993 1.6 1.12993 0.549996 1.12993C0.339996 1.12993 0.339996 1.12993 0.339996 1.33993C0.339996 5.18993 0.339996 8.96993 0.339996 12.8199C0.339996 12.9599 0.409996 13.0299 0.549996 13.0299C1.67 13.0299 2.72 13.0299 3.84 13.0299C4.05 13.0299 4.05 13.0299 4.05 12.8199C4.05 10.9299 4.05 9.03993 4.05 7.14993C4.05 6.65993 4.12 6.23993 4.19 5.74993C4.33 4.97993 4.75 4.41993 5.52 4.20993C5.87 4.13993 6.22 4.06993 6.57 4.13993C7.2 4.20993 7.62 4.55993 7.83 5.11993C8.04 5.53993 8.11 6.02993 8.11 6.51993C8.11 8.61993 8.11 10.7199 8.11 12.8199C8.11 13.0299 8.11 13.0299 8.32 13.0299C9.44 13.0299 10.49 13.0299 11.61 13.0299C11.82 13.0299 11.82 13.0299 11.82 12.8199C11.82 10.5799 11.82 8.40993 11.82 6.16993C11.89 5.11993 11.82 4.13993 11.54 3.29993Z" fill="#515151"/>
</svg>
