<svg width="11" height="20" viewBox="0 0 11 20" fill="none" xmlns="http://www.w3.org/2000/svg">
<path d="M10.83 3.77003C10.13 3.77003 9.43002 3.77003 8.73002 3.77003C7.82002 3.77003 7.54002 4.05003 7.47002 4.96003C7.47002 5.45003 7.47002 5.87003 7.47002 6.36003C7.47002 6.71003 7.61002 6.78003 7.89002 6.78003C8.87002 6.78003 9.78002 6.78003 10.76 6.78003C10.69 7.34003 10.62 7.83004 10.55 8.39004C10.48 8.95004 10.41 9.44003 10.34 10C9.36002 10 8.45002 10 7.40002 10C7.40002 13.22 7.40002 16.37 7.40002 19.59C7.19002 19.59 6.98002 19.59 6.84002 19.59C5.79002 19.59 4.74002 19.59 3.69002 19.59C3.06002 19.59 3.06002 19.59 3.06002 18.96C3.06002 16.16 3.06002 13.36 3.06002 10.56C3.06002 10.42 3.06002 10.21 3.06002 10C2.36002 10 1.66002 10 0.960022 10C0.960022 8.95004 0.960022 7.90003 0.960022 6.78003C1.52002 6.78003 2.01002 6.78003 2.57002 6.78003C2.92002 6.78003 3.06002 6.64003 3.06002 6.29003C3.06002 5.45003 3.06002 4.61003 3.06002 3.77003C3.20002 1.95003 4.18002 0.830034 5.93002 0.550034C6.84002 0.410034 7.82002 0.410034 8.80002 0.410034C9.36002 0.410034 9.85002 0.410034 10.41 0.410034C10.55 0.410034 10.69 0.550034 10.69 0.620034C10.9 1.67003 10.83 2.72003 10.83 3.77003Z" fill="#515151"/>
</svg>
