<svg width="30" height="30" viewBox="0 0 30 30" fill="none" xmlns="http://www.w3.org/2000/svg">
<path d="M21.9 29.1999C17.3 29.1999 12.6 29.1999 8 29.1999C7.9 29.1999 7.8 29.1999 7.7 29.1999C6.9 29.0999 6.2 28.8999 5.5 28.5999C2.4 27.1999 0.799999 24.6999 0.799999 21.3999C0.699999 17.1999 0.799999 12.9999 0.799999 8.6999C0.799999 7.2999 1.1 5.9999 1.8 4.8999C3.4 2.1999 5.7 0.899902 8.8 0.899902C12.9 0.899902 17.1 0.899902 21.2 0.899902C21.7 0.899902 22.3 0.899902 22.8 0.999902C26 1.6999 28.1 3.6999 29 6.7999C29.1 7.1999 29.2 7.6999 29.2 8.0999C29.2 12.6999 29.2 17.3999 29.2 21.9999C29.2 22.2999 29.1 22.5999 29.1 22.8999C28.4 26.0999 26.4 28.1999 23.2 29.0999C22.8 29.0999 22.4 29.0999 21.9 29.1999ZM15 3.2999C12.9 3.2999 10.9 3.2999 8.8 3.2999C8.2 3.2999 7.5 3.3999 6.9 3.5999C4.6 4.3999 3.3 6.2999 3.3 8.7999C3.3 12.8999 3.3 17.0999 3.3 21.1999C3.3 21.7999 3.4 22.4999 3.6 22.9999C4.4 25.2999 6.3 26.5999 8.8 26.5999C12.9 26.5999 17.1 26.5999 21.2 26.5999C21.8 26.5999 22.5 26.4999 23 26.2999C25.3 25.4999 26.6 23.5999 26.6 21.1999C26.6 16.9999 26.6 12.8999 26.6 8.6999C26.6 6.7999 25.8 5.2999 24.3 4.1999C23.3 3.4999 22.2 3.1999 21.1 3.1999C19.1 3.2999 17.1 3.2999 15 3.2999Z" fill="white"/>
</svg>
