<svg width="30" height="21" viewBox="0 0 30 21" fill="none" xmlns="http://www.w3.org/2000/svg">
<path d="M0.599976 12.0999C0.599976 11.3999 0.599976 10.5999 0.599976 9.8999C0.599976 9.7999 0.599976 9.7999 0.599976 9.6999C0.599976 8.8999 0.699975 8.1999 0.699975 7.3999C0.799975 6.2999 0.899975 5.1999 1.19998 4.0999C1.59998 2.6999 2.49998 1.7999 3.89998 1.4999C5.09998 1.1999 6.39998 1.1999 7.59998 1.0999C9.39998 0.999903 11.3 0.899902 13.1 0.899902C15.9 0.899902 18.7 0.899903 21.6 0.999903C23 0.999903 24.5 1.1999 25.9 1.3999C27.5 1.5999 28.7 2.5999 29.1 4.0999C29.4 5.1999 29.5 6.1999 29.5 7.2999C29.5 9.5999 29.5 11.9999 29.5 14.2999C29.5 15.4999 29.4 16.6999 29.1 17.7999C28.7 19.1999 27.8 20.0999 26.4 20.3999C25.2 20.6999 23.9 20.6999 22.6 20.7999C20.9 20.8999 19.2 20.8999 17.5 20.9999C17.4 20.9999 17.3 20.9999 17.3 20.9999C15.9 20.9999 14.5 20.9999 13.1 20.9999C13 20.9999 13 20.9999 12.9 20.9999C11.3 20.8999 9.59998 20.8999 7.99998 20.7999C6.79998 20.6999 5.49998 20.5999 4.29998 20.3999C2.69998 20.0999 1.69998 19.1999 1.29998 17.5999C0.999976 16.2999 0.899976 14.8999 0.799976 13.4999C0.699976 13.1999 0.599976 12.6999 0.599976 12.0999ZM19.7 10.9999C17.2 9.4999 14.7 8.0999 12.2 6.6999C12.2 9.5999 12.2 12.4999 12.2 15.3999C14.7 13.8999 17.2 12.3999 19.7 10.9999Z" fill="white"/>
</svg>
