<svg width="30" height="21" viewBox="0 0 30 21" fill="none" xmlns="http://www.w3.org/2000/svg">
<path d="M0.600006 12.0999C0.600006 11.3999 0.600006 10.5999 0.600006 9.8999C0.600006 9.7999 0.600006 9.7999 0.600006 9.6999C0.600006 8.8999 0.700006 8.1999 0.700006 7.3999C0.800006 6.2999 0.900006 5.1999 1.20001 4.0999C1.60001 2.6999 2.50001 1.7999 3.90001 1.4999C5.10001 1.1999 6.40001 1.1999 7.60001 1.0999C9.40001 0.999903 11.3 0.899902 13.1 0.899902C15.9 0.899902 18.7 0.899903 21.6 0.999903C23 0.999903 24.5 1.1999 25.9 1.3999C27.5 1.5999 28.7 2.5999 29.1 4.0999C29.4 5.1999 29.5 6.1999 29.5 7.2999C29.5 9.5999 29.5 11.9999 29.5 14.2999C29.5 15.4999 29.4 16.6999 29.1 17.7999C28.7 19.1999 27.8 20.0999 26.4 20.3999C25.2 20.6999 23.9 20.6999 22.6 20.7999C20.9 20.8999 19.2 20.8999 17.5 20.9999C17.4 20.9999 17.3 20.9999 17.3 20.9999C15.9 20.9999 14.5 20.9999 13.1 20.9999C13 20.9999 13 20.9999 12.9 20.9999C11.3 20.8999 9.60001 20.8999 8.00001 20.7999C6.80001 20.6999 5.50001 20.5999 4.30001 20.3999C2.70001 20.0999 1.70001 19.1999 1.30001 17.5999C1.00001 16.2999 0.900006 14.8999 0.800006 13.4999C0.700006 13.1999 0.600006 12.6999 0.600006 12.0999ZM19.7 10.9999C17.2 9.4999 14.7 8.0999 12.2 6.6999C12.2 9.5999 12.2 12.4999 12.2 15.3999C14.7 13.8999 17.2 12.3999 19.7 10.9999Z" fill="white"/>
</svg>
