<svg width="32" height="32" viewBox="0 0 32 32" fill="none" xmlns="http://www.w3.org/2000/svg">
<path fill-rule="evenodd" clip-rule="evenodd" d="M16.0001 0.900051C7.40012 0.900051 0.500122 7.80005 0.500122 16.4001C0.500122 23.2001 4.90012 29.1001 11.1001 31.1001C11.9001 31.2001 12.2001 30.8001 12.2001 30.4001C12.2001 30.0001 12.2001 29.1001 12.2001 27.8001C7.90012 28.7001 7.00012 25.7001 7.00012 25.7001C6.30012 23.9001 5.30012 23.4001 5.30012 23.4001C3.90012 22.4001 5.40012 22.5001 5.40012 22.5001C7.00012 22.6001 7.80012 24.1001 7.80012 24.1001C9.20012 26.5001 11.4001 25.8001 12.3001 25.4001C12.4001 24.4001 12.8001 23.7001 13.3001 23.3001C9.90012 22.9001 6.20012 21.6001 6.20012 15.6001C6.20012 13.9001 6.80012 12.5001 7.80012 11.4001C7.60012 11.0001 7.10012 9.40005 8.00012 7.30005C8.00012 7.30005 9.30012 6.90005 12.3001 8.90005C13.5001 8.60005 14.9001 8.40005 16.2001 8.40005C17.5001 8.40005 18.8001 8.60005 20.1001 8.90005C23.1001 6.90005 24.4001 7.30005 24.4001 7.30005C25.2001 9.40005 24.7001 11.0001 24.6001 11.4001C25.6001 12.5001 26.2001 13.9001 26.2001 15.6001C26.2001 21.6001 22.6001 22.9001 19.1001 23.2001C19.7001 23.7001 20.2001 24.6001 20.2001 26.1001C20.2001 28.2001 20.2001 29.8001 20.2001 30.4001C20.2001 30.8001 20.5001 31.3001 21.3001 31.1001C27.5001 29.0001 31.9001 23.2001 31.9001 16.4001C31.5001 7.80005 24.6001 0.900051 16.0001 0.900051Z" fill="white"/>
</svg>
