<svg width="23" height="22" viewBox="0 0 23 22" fill="none" xmlns="http://www.w3.org/2000/svg">
<path fill-rule="evenodd" clip-rule="evenodd" d="M11.0001 0.430054C4.98009 0.430054 0.150085 5.26005 0.150085 11.2801C0.150085 16.0401 3.23009 20.1701 7.57009 21.5701C8.13009 21.6401 8.34009 21.3601 8.34009 21.0801C8.34009 20.8001 8.34009 20.1701 8.34009 19.2601C5.33009 19.8901 4.70009 17.7901 4.70009 17.7901C4.21009 16.5301 3.51009 16.1801 3.51009 16.1801C2.53009 15.4801 3.58009 15.5501 3.58009 15.5501C4.70009 15.6201 5.26009 16.6701 5.26009 16.6701C6.24009 18.3501 7.78009 17.8601 8.41009 17.5801C8.48009 16.8801 8.76009 16.3901 9.11009 16.1101C6.73009 15.8301 4.14009 14.9201 4.14009 10.7201C4.14009 9.53006 4.56009 8.55005 5.26009 7.78006C5.12009 7.50005 4.77009 6.38005 5.40009 4.91005C5.40009 4.91005 6.31009 4.63005 8.41009 6.03005C9.25009 5.82005 10.2301 5.68005 11.1401 5.68005C12.0501 5.68005 12.9601 5.82005 13.8701 6.03005C15.9701 4.63005 16.8801 4.91005 16.8801 4.91005C17.4401 6.38005 17.0901 7.50005 17.0201 7.78006C17.7201 8.55005 18.1401 9.53006 18.1401 10.7201C18.1401 14.9201 15.6201 15.8301 13.1701 16.0401C13.5901 16.3901 13.9401 17.0201 13.9401 18.0701C13.9401 19.5401 13.9401 20.6601 13.9401 21.0801C13.9401 21.3601 14.1501 21.7101 14.7101 21.5701C19.0501 20.1001 22.1301 16.0401 22.1301 11.2801C21.8501 5.26005 17.0201 0.430054 11.0001 0.430054Z" fill="#515151"/>
</svg>
