<svg width="23" height="23" viewBox="0 0 23 23" fill="none" xmlns="http://www.w3.org/2000/svg">
<path d="M11.4375 0.5C5.38542 0.5 0.5 5.38542 0.5 11.4375C0.5 17.4896 5.3125 22.375 11.4375 22.375C17.7083 22.375 22.375 17.3438 22.375 11.4375C22.375 5.53125 17.6354 0.5 11.4375 0.5ZM8.01042 11.9479C8.01042 12.0938 7.9375 12.1667 7.79167 12.1667C7.28125 12.1667 6.77083 12.1667 6.26042 12.1667C6.1875 12.1667 6.1875 12.1667 6.11458 12.1667C6.11458 12.2396 6.11458 12.3125 6.11458 12.3854C6.11458 14.5 6.11458 16.6146 6.11458 18.7292C6.11458 18.9479 6.11458 18.9479 5.89583 18.9479C5.38542 18.9479 4.875 18.9479 4.36458 18.9479C4.21875 18.9479 4.14583 18.875 4.14583 18.7292C4.14583 17.3438 4.14583 15.9583 4.14583 14.6458C4.14583 11.2917 4.14583 8.01042 4.14583 4.65625C4.14583 4.36458 4.14583 4.36458 4.4375 4.36458C5.53125 4.36458 6.69792 4.36458 7.79167 4.36458C8.01042 4.36458 8.01042 4.36458 8.01042 4.58333C8.01042 5.02083 8.01042 5.45833 8.01042 5.89583C8.01042 6.11458 8.01042 6.11458 7.79167 6.11458C7.28125 6.11458 6.77083 6.11458 6.26042 6.11458C6.11458 6.11458 6.11458 6.11458 6.11458 6.26042C6.11458 7.57292 6.11458 8.88542 6.11458 10.1979C6.11458 10.3438 6.1875 10.3438 6.26042 10.3438C6.77083 10.3438 7.28125 10.3438 7.79167 10.3438C7.9375 10.3438 8.01042 10.4167 8.01042 10.5625C8.01042 11.0729 8.01042 11.5104 8.01042 11.9479ZM11.5833 6.11458C11.3646 6.11458 11.0729 6.11458 10.8542 6.11458C10.7813 6.11458 10.7083 6.11458 10.7083 6.26042C10.7083 7.57292 10.7083 8.95833 10.7083 10.2708C10.7083 10.4167 10.7813 10.4167 10.8542 10.4167C11.4375 10.4167 12.0938 10.4167 12.6771 10.4167C13.2604 10.4167 13.6979 10.8542 13.6979 11.4375C13.6979 13.625 13.6979 15.7396 13.6979 17.9271C13.6979 18.5104 13.2604 18.9479 12.6771 18.9479C11.6563 18.9479 10.7083 18.9479 9.6875 18.9479C9.10417 18.9479 8.73958 18.5104 8.73958 18C8.73958 15.8854 8.73958 13.7708 8.73958 11.7292C8.73958 11.2188 8.73958 10.7083 8.73958 10.1979C8.73958 9.6875 8.73958 9.17708 8.73958 8.66667C8.73958 8.375 8.73958 8.15625 8.73958 7.86458C8.73958 7.35417 8.73958 6.84375 8.73958 6.33333C8.73958 6.04167 8.73958 5.82292 8.73958 5.53125C8.73958 4.875 9.25 4.4375 9.76042 4.4375C10.7083 4.4375 11.7292 4.4375 12.6771 4.4375C13.0417 4.4375 13.3333 4.58333 13.5521 4.875C13.625 5.02083 13.6979 5.16667 13.6979 5.3125C13.6979 6.40625 13.6979 7.42708 13.6979 8.52083C13.6979 8.66667 13.625 8.73958 13.4792 8.66667C12.9688 8.66667 12.4583 8.66667 11.875 8.66667C11.7292 8.66667 11.6562 8.59375 11.6562 8.44792C11.6562 7.71875 11.6562 6.98958 11.6562 6.26042C11.7292 6.1875 11.7292 6.11458 11.5833 6.11458ZM18.3646 18.9479C17.3438 18.9479 16.3229 18.9479 15.3021 18.9479C14.7917 18.9479 14.3542 18.5104 14.3542 18C14.3542 16.6146 14.3542 15.1563 14.3542 13.7708C14.3542 13.625 14.4271 13.5521 14.5729 13.5521C15.0833 13.5521 15.5938 13.5521 16.1042 13.5521C16.25 13.5521 16.3229 13.625 16.3229 13.7708C16.3229 14.8646 16.3229 15.8854 16.3229 16.9792C16.3229 17.1979 16.3229 17.1979 16.5417 17.1979C16.7604 17.1979 16.9792 17.1979 17.1979 17.1979C17.3438 17.1979 17.4167 17.1979 17.4167 16.9792C17.4167 16.3958 17.4167 15.8854 17.4167 15.3021C17.4167 14.4271 17.4167 13.5521 17.4167 12.6771C17.4167 12.3854 17.4167 12.3854 17.125 12.3854C16.5417 12.3854 16.0312 12.3854 15.4479 12.3854C15.0833 12.3854 14.8646 12.2396 14.6458 12.0208C14.5 11.875 14.4271 11.7292 14.4271 11.5104C14.4271 10.4896 14.4271 9.46875 14.4271 8.44792C14.4271 7.79167 14.4271 7.20833 14.4271 6.55208C14.4271 6.1875 14.4271 5.82292 14.4271 5.38542C14.4271 4.875 14.9375 4.51042 15.2292 4.4375C15.3021 4.4375 15.4479 4.4375 15.5208 4.4375C16.4688 4.4375 17.3438 4.4375 18.2917 4.4375C18.6562 4.4375 18.9479 4.58333 19.2396 4.875C19.3854 5.02083 19.3854 5.16667 19.3854 5.38542C19.3854 6.69792 19.3854 8.01042 19.3854 9.39583C19.3854 9.54167 19.3125 9.61458 19.1667 9.61458C18.6562 9.61458 18.1458 9.61458 17.6354 9.61458C17.4167 9.61458 17.4167 9.61458 17.4167 9.39583C17.4167 8.44792 17.4167 7.42708 17.4167 6.47917C17.4167 6.33333 17.3438 6.26042 17.1979 6.26042C16.9792 6.26042 16.7604 6.26042 16.5417 6.26042C16.3958 6.26042 16.3958 6.26042 16.3958 6.40625C16.3958 7.79167 16.3958 9.17708 16.3958 10.5625C16.3958 10.7083 16.4688 10.7083 16.5417 10.7083C17.125 10.7083 17.7812 10.7083 18.3646 10.7083C18.8021 10.7083 19.2396 11 19.3854 11.4375C19.3854 11.5104 19.3854 11.5833 19.3854 11.6562C19.3854 13.7708 19.3854 15.8854 19.3854 18.0729C19.3125 18.5104 18.875 18.9479 18.3646 18.9479Z" fill="#515151"/>
</svg>
